<svg xmlns="http://www.w3.org/2000/svg" xmlns:xlink="http://www.w3.org/1999/xlink" width="323" height="470" viewBox="0 0 323 470">
  <defs>
    <style>
      .cls-1 {
        fill: #fff;
      }

      .cls-2 {
        clip-path: url(#clip-path);
      }

      .cls-3 {
        opacity: 0.32;
      }

      .cls-4 {
        fill: #324a5e;
      }

      .cls-5 {
        fill: #2b3b4e;
      }

      .cls-6 {
        fill: #fed8b2;
      }

      .cls-7 {
        fill: #eabe96;
      }

      .cls-8 {
        fill: #f4e3c3;
      }

      .cls-9 {
        fill: #ffd15d;
      }

      .cls-10 {
        fill: #f9b54c;
      }

      .cls-11 {
        fill: #59595b;
      }

      .cls-12 {
        fill: #272525;
      }

      .cls-13 {
        fill: #fd8469;
      }

      .cls-14 {
        fill: #fc6f58;
      }

      .cls-15 {
        fill: #4cdbc4;
      }

      .cls-16 {
        fill: #42c6ac;
      }

      .cls-17 {
        fill: #808183;
      }

      .cls-18 {
        fill: #00a49a;
      }

      .cls-19 {
        fill: #1ea8a4;
      }
    </style>
    <clipPath id="clip-path">
      <rect id="Rectangle_39" data-name="Rectangle 39" class="cls-1" width="323" height="470" transform="translate(957 330)"/>
    </clipPath>
  </defs>
  <g id="programmer" class="cls-2" transform="translate(-957 -330)">
    <g id="programmer-svgrepo-com" class="cls-3" transform="translate(957 322)">
      <circle id="Ellipse_1" data-name="Ellipse 1" class="cls-4" cx="256" cy="256" r="256"/>
      <path id="Path_7" data-name="Path 7" class="cls-5" d="M507.452,304.18,315.077,111.8,195.044,215.28l-38.36,30.306,43.458,43.458-4.218,3.444,63.7,63.7L378.026,481.1A256.325,256.325,0,0,0,507.452,304.18Z"/>
      <path id="Path_8" data-name="Path 8" class="cls-6" d="M278.952,319.538V291.716H228.776v27.822a4.02,4.02,0,0,1-4.02,4.02H190.18v96.011H317.55V323.558H282.974A4.021,4.021,0,0,1,278.952,319.538Z"/>
      <path id="Path_9" data-name="Path 9" class="cls-7" d="M317.549,323.558H282.973a4.02,4.02,0,0,1-4.02-4.02V291.716H253.705V419.569h63.847V323.558h0Z"/>
      <circle id="Ellipse_2" data-name="Ellipse 2" class="cls-6" cx="20.052" cy="20.052" r="20.052" transform="translate(152.545 213.365)"/>
      <circle id="Ellipse_3" data-name="Ellipse 3" class="cls-7" cx="20.052" cy="20.052" r="20.052" transform="translate(315.075 213.365)"/>
      <path id="Path_10" data-name="Path 10" class="cls-8" d="M256.122,316.926H251.6a75.678,75.678,0,0,1-75.678-75.678v-69.1A75.678,75.678,0,0,1,251.6,96.474h4.518A75.678,75.678,0,0,1,331.8,172.152v69.1A75.677,75.677,0,0,1,256.122,316.926Z"/>
      <path id="Path_11" data-name="Path 11" class="cls-6" d="M256.122,96.475H253.7V316.926h2.42A75.678,75.678,0,0,0,331.8,241.248v-69.1A75.678,75.678,0,0,0,256.122,96.475Z"/>
      <path id="Path_12" data-name="Path 12" class="cls-9" d="M323.593,122.051a82.047,82.047,0,0,0-67.277-35.023H251.41a82.165,82.165,0,0,0-82.165,82.165v64.231h12.062V191.662s-.005-20.994-.007-20.994c36.6-3.718,72.6,10.1,104.145-5.677a188.633,188.633,0,0,0,38.934,34.121v34.311h14.1V169.192A81.753,81.753,0,0,0,323.593,122.051Z"/>
      <path id="Path_13" data-name="Path 13" class="cls-10" d="M323.593,122.049a82.047,82.047,0,0,0-67.277-35.023H253.7v85.561c10.955-.515,21.58-2.517,31.742-7.6a188.633,188.633,0,0,0,38.934,34.121v34.311h14.1V169.191A81.763,81.763,0,0,0,323.593,122.049Z"/>
      <circle id="Ellipse_4" data-name="Ellipse 4" class="cls-11" cx="7.794" cy="7.794" r="7.794" transform="translate(209.332 216.727)"/>
      <circle id="Ellipse_5" data-name="Ellipse 5" class="cls-12" cx="7.794" cy="7.794" r="7.794" transform="translate(282.805 216.727)"/>
      <path id="Path_14" data-name="Path 14" class="cls-13" d="M253.862,288.39A25.491,25.491,0,0,1,228.4,262.926a4.31,4.31,0,0,1,8.62,0,16.844,16.844,0,0,0,33.688,0,4.31,4.31,0,0,1,8.62,0A25.489,25.489,0,0,1,253.862,288.39Z"/>
      <path id="Path_15" data-name="Path 15" class="cls-14" d="M275.018,258.617a4.309,4.309,0,0,0-4.31,4.31,16.864,16.864,0,0,1-16.844,16.844c-.053,0-.107-.007-.16-.009v8.62c.053,0,.1.009.16.009a25.491,25.491,0,0,0,25.464-25.464A4.309,4.309,0,0,0,275.018,258.617Z"/>
      <path id="Path_16" data-name="Path 16" class="cls-15" d="M323.017,323.558h-26.7a42.456,42.456,0,0,1-84.912,0h-26.7a58.218,58.218,0,0,0-58.218,58.218v95.075a256.186,256.186,0,0,0,254.741,2.457V381.776A58.219,58.219,0,0,0,323.017,323.558Z"/>
      <path id="Path_17" data-name="Path 17" class="cls-16" d="M323.017,323.558h-26.7a42.456,42.456,0,0,1-42.456,42.456l-.16,0V511.96c.767.007,1.529.04,2.3.04a254.808,254.808,0,0,0,125.235-32.692V381.776A58.222,58.222,0,0,0,323.017,323.558Z"/>
      <path id="Path_20" data-name="Path 20" class="cls-17" d="M291.978,194.772a30.382,30.382,0,0,0-30.02,26.052H245.77a30.363,30.363,0,1,0,0,8.619h16.187a30.346,30.346,0,1,0,30.021-34.671Zm-76.229,52.107a21.743,21.743,0,1,1,21.744-21.744A21.768,21.768,0,0,1,215.749,246.879Zm76.229,0a21.743,21.743,0,1,1,21.744-21.744A21.768,21.768,0,0,1,291.978,246.879Z"/>
      <path id="Path_21" data-name="Path 21" class="cls-11" d="M291.978,194.772a30.382,30.382,0,0,0-30.02,26.052H253.7v8.62h8.254a30.346,30.346,0,1,0,30.02-34.672Zm0,52.107a21.743,21.743,0,1,1,21.744-21.744A21.768,21.768,0,0,1,291.978,246.879Z"/>
      <path id="Path_22" data-name="Path 22" class="cls-18" d="M278.952,466.51a6.895,6.895,0,0,1-4.875-11.77l26-26-26-26a6.894,6.894,0,0,1,9.75-9.75L314.7,423.862a6.891,6.891,0,0,1,0,9.75l-30.877,30.879A6.87,6.87,0,0,1,278.952,466.51Z"/>
      <g id="Group_7" data-name="Group 7">
        <path id="Path_23" data-name="Path 23" class="cls-19" d="M211.406,466.51a6.871,6.871,0,0,1-4.875-2.02l-30.879-30.879a6.893,6.893,0,0,1,0-9.75l30.879-30.877a6.894,6.894,0,0,1,9.75,9.75l-26,26,26,26a6.9,6.9,0,0,1-4.875,11.771Z"/>
        <path id="Path_24" data-name="Path 24" class="cls-19" d="M233.6,463.934a6.9,6.9,0,0,1-6.455-9.317l21.226-56.6a6.895,6.895,0,1,1,12.912,4.84l-21.226,56.6A6.892,6.892,0,0,1,233.6,463.934Z"/>
      </g>
      <path id="Path_25" data-name="Path 25" class="cls-18" d="M257.248,393.98a6.826,6.826,0,0,0-3.546-.319v29.41l7.58-20.215A6.891,6.891,0,0,0,257.248,393.98Z"/>
    </g>
  </g>
</svg>
