<svg xmlns="http://www.w3.org/2000/svg" width="46" height="502" viewBox="0 0 46 502">
  <defs>
    <style>
      .cls-1 {
        fill: #ce053e;
      }

      .cls-2 {
        fill: #aa043b;
      }

      .cls-3 {
        fill: #f7b208;
      }

      .cls-4 {
        fill: #ea8b00;
      }
    </style>
  </defs>
  <g id="Group_54" data-name="Group 54" transform="translate(-7489 194)">
    <path id="Path_25" data-name="Path 25" class="cls-1" d="M0,0V273.6c1.633.8,1.143.8,1.469.8C16.98,287.2,33.8,178.4,38.857,32c.327-10.4.816-16,1.143-32Z" transform="translate(7495 -194)"/>
    <path id="Path_26" data-name="Path 26" class="cls-2" d="M1.352,274.4a3.258,3.258,0,0,0,2.554.8C16.525,273.6,24.036,168.8,28.393,32c.3-10.4.751-16,.9-32H0V273.6C1.5,273.6,1.052,274.4,1.352,274.4Z" transform="translate(7489 -194)"/>
    <path id="Path_27" data-name="Path 27" class="cls-1" d="M0,496V292.8c1.567-.8,1.1-.8,1.411-.8C16.3,279.2,26.018,406.4,37.3,464c1.411,7.2.784,16,1.1,32Z" transform="translate(7489 -188)"/>
    <path id="Path_28" data-name="Path 28" class="cls-2" d="M28.482,464C19.037,412.8,16.529,306.4,6.2,292.8c-.59-.8-1.181-1.6-1.771-1.6a3.012,3.012,0,0,0-2.361.8c-.3,0-1.033.8-1.328.8L0,299.2V496H29.22C29.073,480,29.81,471.2,28.482,464Z" transform="translate(7489 -188)"/>
    <path id="Path_29" data-name="Path 29" class="cls-3" d="M11.138,264H0v40H11.138c1.831,0,3.509-10.4,3.509-20S12.969,264,11.138,264Z" transform="translate(7489 -190.526)"/>
    <path id="Path_30" data-name="Path 30" class="cls-4" d="M9.6,284c0-9.6-1.391-20-3.2-20H0v40H6.4C8.209,304,9.6,293.6,9.6,284Z" transform="translate(7489 -190.526)"/>
  </g>
</svg>
